<svg width="77" height="101" viewBox="0 0 77 101" fill="none" xmlns="http://www.w3.org/2000/svg">
<path d="M44.2657 0C48.4815 0 52.5113 0.556985 56.3551 1.67096C60.1989 2.66115 63.5467 4.08456 66.3986 5.94117C69.3744 7.79779 71.6063 10.0257 73.0942 12.625C74.7061 15.2243 75.5121 18.0711 75.5121 21.1654C75.5121 24.8787 74.4581 27.7874 72.3502 29.8915C70.2423 31.9957 67.5145 33.0478 64.1667 33.0478C60.8188 33.0478 58.029 32.1195 55.7971 30.2629C53.5652 28.4063 52.4493 25.7451 52.4493 22.2794C52.4493 19.0613 53.3792 16.462 55.2391 14.4816C57.099 12.3775 59.2689 11.0159 61.7488 10.3971C60.6329 8.54044 58.649 6.99326 55.7971 5.75552C53.0692 4.39399 50.0934 3.71323 46.8696 3.71323C43.5217 3.71323 40.2979 4.57966 37.1981 6.3125C34.2222 8.04535 31.5564 10.7065 29.2005 14.296C26.8446 17.8854 24.9227 22.527 23.4348 28.2206C22.0709 33.9142 21.3889 40.7837 21.3889 48.8291C21.3889 59.2261 22.5668 67.519 24.9227 73.7077C27.4026 79.7727 30.6264 84.1048 34.5942 86.7041C38.562 89.3033 42.8398 90.603 47.4275 90.603C50.4034 90.603 53.4412 90.046 56.5411 88.932C59.7649 87.818 62.8027 85.9614 65.6546 83.3621C68.6304 80.7629 71.2343 77.2353 73.4662 72.7794L77 74.079C75.6361 78.1636 73.4662 82.3101 70.4903 86.5184C67.6385 90.7267 63.8567 94.1924 59.1449 96.9155C54.4332 99.6385 48.6675 101 41.8478 101C34.0362 101 26.9686 99.0815 20.6449 95.2445C14.3213 91.4075 9.29952 85.8376 5.57971 78.5349C1.8599 71.1085 0 62.0729 0 51.4283C0 41.0313 1.8599 31.9957 5.57971 24.3217C9.42351 16.5239 14.6932 10.5208 21.3889 6.3125C28.0845 2.10417 35.7101 0 44.2657 0Z" fill="black"/>
<path d="M75.0157 49.589C75.0157 55.8583 69.9244 60.9406 63.644 60.9406C57.3636 60.9406 52.2723 55.8583 52.2723 49.589C52.2723 43.3197 57.3636 38.2374 63.644 38.2374C69.9244 38.2374 75.0157 43.3197 75.0157 49.589Z" fill="black"/>
</svg>
